<mxfile host="app.diagrams.net" modified="2022-11-11T16:33:39.397Z" agent="5.0 (Macintosh; Intel Mac OS X 10_14_6) AppleWebKit/537.36 (KHTML, like Gecko) Chrome/106.0.0.0 Safari/537.36" etag="VfGsSfOsl8Zj8_oXCup0" version="20.4.1" type="github">
  <diagram id="F3jdOI9H2RgUdCJ2v2Wl" name="第 1 页">
    <mxGraphModel dx="946" dy="534" grid="1" gridSize="10" guides="1" tooltips="1" connect="1" arrows="1" fold="1" page="1" pageScale="1" pageWidth="827" pageHeight="1169" math="0" shadow="0">
      <root>
        <mxCell id="0" />
        <mxCell id="1" parent="0" />
        <mxCell id="d5d9Rj7MMf3OSMYniYzq-2" value="" style="rounded=1;whiteSpace=wrap;html=1;strokeWidth=2;fillWeight=4;hachureGap=8;hachureAngle=45;fillColor=#fff2cc;sketch=0;strokeColor=#d6b656;" vertex="1" parent="1">
          <mxGeometry x="120" y="50" width="600" height="270" as="geometry" />
        </mxCell>
        <mxCell id="d5d9Rj7MMf3OSMYniYzq-3" value="&lt;font style=&quot;font-size: 20px;&quot;&gt;&lt;b&gt;server&lt;/b&gt;&lt;/font&gt;" style="rounded=1;whiteSpace=wrap;html=1;strokeWidth=2;fillWeight=4;hachureGap=8;hachureAngle=45;fillColor=#dae8fc;sketch=0;strokeColor=#6c8ebf;" vertex="1" parent="1">
          <mxGeometry x="140" y="95" width="560" height="60" as="geometry" />
        </mxCell>
        <mxCell id="d5d9Rj7MMf3OSMYniYzq-4" value="" style="rounded=1;whiteSpace=wrap;html=1;strokeWidth=2;fillWeight=4;hachureGap=8;hachureAngle=45;fillColor=#dae8fc;sketch=0;strokeColor=#6c8ebf;" vertex="1" parent="1">
          <mxGeometry x="140" y="170" width="560" height="130" as="geometry" />
        </mxCell>
        <mxCell id="d5d9Rj7MMf3OSMYniYzq-5" value="&lt;font style=&quot;font-size: 20px;&quot;&gt;&lt;b&gt;buffer pool&lt;/b&gt;&lt;/font&gt;" style="rounded=1;whiteSpace=wrap;html=1;strokeWidth=2;fillWeight=4;hachureGap=8;hachureAngle=45;fillColor=#ffe6cc;sketch=0;strokeColor=#d79b00;" vertex="1" parent="1">
          <mxGeometry x="160" y="220" width="520" height="60" as="geometry" />
        </mxCell>
        <mxCell id="d5d9Rj7MMf3OSMYniYzq-7" value="" style="rounded=1;whiteSpace=wrap;html=1;strokeWidth=2;fillWeight=4;hachureGap=8;hachureAngle=45;fillColor=#dae8fc;sketch=0;strokeColor=#6c8ebf;" vertex="1" parent="1">
          <mxGeometry x="120" y="360" width="600" height="230" as="geometry" />
        </mxCell>
        <mxCell id="d5d9Rj7MMf3OSMYniYzq-8" value="" style="rounded=1;whiteSpace=wrap;html=1;strokeWidth=2;fillWeight=4;hachureGap=8;hachureAngle=45;fillColor=#d5e8d4;sketch=0;strokeColor=#82b366;" vertex="1" parent="1">
          <mxGeometry x="150" y="410" width="120" height="160" as="geometry" />
        </mxCell>
        <mxCell id="d5d9Rj7MMf3OSMYniYzq-12" value="" style="rounded=1;whiteSpace=wrap;html=1;strokeWidth=2;fillWeight=4;hachureGap=8;hachureAngle=45;fillColor=#d5e8d4;sketch=0;strokeColor=#82b366;" vertex="1" parent="1">
          <mxGeometry x="290" y="410" width="120" height="160" as="geometry" />
        </mxCell>
        <mxCell id="d5d9Rj7MMf3OSMYniYzq-13" value="" style="rounded=1;whiteSpace=wrap;html=1;strokeWidth=2;fillWeight=4;hachureGap=8;hachureAngle=45;fillColor=#d5e8d4;sketch=0;strokeColor=#82b366;" vertex="1" parent="1">
          <mxGeometry x="430" y="410" width="120" height="160" as="geometry" />
        </mxCell>
        <mxCell id="d5d9Rj7MMf3OSMYniYzq-14" value="" style="rounded=1;whiteSpace=wrap;html=1;strokeWidth=2;fillWeight=4;hachureGap=8;hachureAngle=45;fillColor=#d5e8d4;sketch=0;strokeColor=#82b366;" vertex="1" parent="1">
          <mxGeometry x="570" y="410" width="120" height="160" as="geometry" />
        </mxCell>
        <mxCell id="d5d9Rj7MMf3OSMYniYzq-15" value="" style="endArrow=none;html=1;rounded=0;strokeWidth=4;" edge="1" parent="1">
          <mxGeometry width="50" height="50" relative="1" as="geometry">
            <mxPoint x="100" y="340" as="sourcePoint" />
            <mxPoint x="740" y="340" as="targetPoint" />
          </mxGeometry>
        </mxCell>
        <mxCell id="d5d9Rj7MMf3OSMYniYzq-16" value="OS" style="text;html=1;align=center;verticalAlign=middle;resizable=0;points=[];autosize=1;strokeColor=none;fillColor=none;strokeWidth=6;fontSize=16;fontStyle=1" vertex="1" parent="1">
          <mxGeometry x="750" y="320" width="50" height="30" as="geometry" />
        </mxCell>
        <mxCell id="d5d9Rj7MMf3OSMYniYzq-17" value="io" style="text;html=1;align=center;verticalAlign=middle;resizable=0;points=[];autosize=1;strokeColor=none;fillColor=none;fontSize=20;fontStyle=1" vertex="1" parent="1">
          <mxGeometry x="660" y="360" width="40" height="40" as="geometry" />
        </mxCell>
        <mxCell id="d5d9Rj7MMf3OSMYniYzq-18" value="mysql" style="text;html=1;align=center;verticalAlign=middle;resizable=0;points=[];autosize=1;strokeColor=none;fillColor=none;fontSize=20;fontStyle=1" vertex="1" parent="1">
          <mxGeometry x="620" y="50" width="80" height="40" as="geometry" />
        </mxCell>
        <mxCell id="d5d9Rj7MMf3OSMYniYzq-19" value="record" style="rounded=1;whiteSpace=wrap;html=1;strokeWidth=2;fillWeight=4;hachureGap=8;hachureAngle=45;fillColor=#fff2cc;sketch=0;fontSize=20;strokeColor=#d6b656;" vertex="1" parent="1">
          <mxGeometry x="170" y="460" width="80" height="40" as="geometry" />
        </mxCell>
        <mxCell id="d5d9Rj7MMf3OSMYniYzq-20" value="record" style="rounded=1;whiteSpace=wrap;html=1;strokeWidth=2;fillWeight=4;hachureGap=8;hachureAngle=45;fillColor=#fff2cc;sketch=0;fontSize=20;strokeColor=#d6b656;" vertex="1" parent="1">
          <mxGeometry x="170" y="510" width="80" height="40" as="geometry" />
        </mxCell>
        <mxCell id="d5d9Rj7MMf3OSMYniYzq-21" value="record" style="rounded=1;whiteSpace=wrap;html=1;strokeWidth=2;fillWeight=4;hachureGap=8;hachureAngle=45;fillColor=#fff2cc;sketch=0;fontSize=20;strokeColor=#d6b656;" vertex="1" parent="1">
          <mxGeometry x="310" y="460" width="80" height="40" as="geometry" />
        </mxCell>
        <mxCell id="d5d9Rj7MMf3OSMYniYzq-22" value="record" style="rounded=1;whiteSpace=wrap;html=1;strokeWidth=2;fillWeight=4;hachureGap=8;hachureAngle=45;fillColor=#fff2cc;sketch=0;fontSize=20;strokeColor=#d6b656;" vertex="1" parent="1">
          <mxGeometry x="310" y="510" width="80" height="40" as="geometry" />
        </mxCell>
        <mxCell id="d5d9Rj7MMf3OSMYniYzq-23" value="record" style="rounded=1;whiteSpace=wrap;html=1;strokeWidth=2;fillWeight=4;hachureGap=8;hachureAngle=45;fillColor=#fff2cc;sketch=0;fontSize=20;strokeColor=#d6b656;" vertex="1" parent="1">
          <mxGeometry x="450" y="460" width="80" height="40" as="geometry" />
        </mxCell>
        <mxCell id="d5d9Rj7MMf3OSMYniYzq-24" value="record" style="rounded=1;whiteSpace=wrap;html=1;strokeWidth=2;fillWeight=4;hachureGap=8;hachureAngle=45;fillColor=#fff2cc;sketch=0;fontSize=20;strokeColor=#d6b656;" vertex="1" parent="1">
          <mxGeometry x="450" y="510" width="80" height="40" as="geometry" />
        </mxCell>
        <mxCell id="d5d9Rj7MMf3OSMYniYzq-25" value="record" style="rounded=1;whiteSpace=wrap;html=1;strokeWidth=2;fillWeight=4;hachureGap=8;hachureAngle=45;fillColor=#fff2cc;sketch=0;fontSize=20;strokeColor=#d6b656;" vertex="1" parent="1">
          <mxGeometry x="590" y="460" width="80" height="40" as="geometry" />
        </mxCell>
        <mxCell id="d5d9Rj7MMf3OSMYniYzq-26" value="record" style="rounded=1;whiteSpace=wrap;html=1;strokeWidth=2;fillWeight=4;hachureGap=8;hachureAngle=45;fillColor=#fff2cc;sketch=0;fontSize=20;strokeColor=#d6b656;" vertex="1" parent="1">
          <mxGeometry x="590" y="510" width="80" height="40" as="geometry" />
        </mxCell>
        <mxCell id="d5d9Rj7MMf3OSMYniYzq-27" value="&lt;span style=&quot;color: rgb(0, 0, 0); font-family: Helvetica; font-size: 16px; font-style: normal; font-variant-ligatures: normal; font-variant-caps: normal; font-weight: 700; letter-spacing: normal; orphans: 2; text-indent: 0px; text-transform: none; widows: 2; word-spacing: 0px; -webkit-text-stroke-width: 0px; text-decoration-thickness: initial; text-decoration-style: initial; text-decoration-color: initial; float: none; display: inline !important;&quot;&gt;数据页&lt;/span&gt;" style="text;whiteSpace=wrap;html=1;fontSize=20;align=center;" vertex="1" parent="1">
          <mxGeometry x="180" y="420" width="60" height="50" as="geometry" />
        </mxCell>
        <mxCell id="d5d9Rj7MMf3OSMYniYzq-28" value="&lt;span style=&quot;color: rgb(0, 0, 0); font-family: Helvetica; font-size: 16px; font-style: normal; font-variant-ligatures: normal; font-variant-caps: normal; font-weight: 700; letter-spacing: normal; orphans: 2; text-indent: 0px; text-transform: none; widows: 2; word-spacing: 0px; -webkit-text-stroke-width: 0px; text-decoration-thickness: initial; text-decoration-style: initial; text-decoration-color: initial; float: none; display: inline !important;&quot;&gt;数据页&lt;/span&gt;" style="text;whiteSpace=wrap;html=1;fontSize=20;align=center;" vertex="1" parent="1">
          <mxGeometry x="320" y="420" width="60" height="50" as="geometry" />
        </mxCell>
        <mxCell id="d5d9Rj7MMf3OSMYniYzq-29" value="&lt;span style=&quot;color: rgb(0, 0, 0); font-family: Helvetica; font-size: 16px; font-style: normal; font-variant-ligatures: normal; font-variant-caps: normal; font-weight: 700; letter-spacing: normal; orphans: 2; text-indent: 0px; text-transform: none; widows: 2; word-spacing: 0px; -webkit-text-stroke-width: 0px; text-decoration-thickness: initial; text-decoration-style: initial; text-decoration-color: initial; float: none; display: inline !important;&quot;&gt;数据页&lt;/span&gt;" style="text;whiteSpace=wrap;html=1;fontSize=20;align=center;" vertex="1" parent="1">
          <mxGeometry x="460" y="420" width="60" height="50" as="geometry" />
        </mxCell>
        <mxCell id="d5d9Rj7MMf3OSMYniYzq-30" value="&lt;span style=&quot;color: rgb(0, 0, 0); font-family: Helvetica; font-size: 16px; font-style: normal; font-variant-ligatures: normal; font-variant-caps: normal; font-weight: 700; letter-spacing: normal; orphans: 2; text-indent: 0px; text-transform: none; widows: 2; word-spacing: 0px; -webkit-text-stroke-width: 0px; text-decoration-thickness: initial; text-decoration-style: initial; text-decoration-color: initial; float: none; display: inline !important;&quot;&gt;数据页&lt;/span&gt;" style="text;whiteSpace=wrap;html=1;fontSize=20;align=center;" vertex="1" parent="1">
          <mxGeometry x="600" y="420" width="60" height="50" as="geometry" />
        </mxCell>
        <mxCell id="d5d9Rj7MMf3OSMYniYzq-31" value="innodb" style="text;html=1;align=center;verticalAlign=middle;resizable=0;points=[];autosize=1;strokeColor=none;fillColor=none;fontSize=20;fontStyle=1" vertex="1" parent="1">
          <mxGeometry x="375" y="180" width="90" height="40" as="geometry" />
        </mxCell>
      </root>
    </mxGraphModel>
  </diagram>
</mxfile>
